<svg id="Capa_1" enable-background="new 0 0 512 512" height="512" viewBox="0 0 512 512" width="512" xmlns="http://www.w3.org/2000/svg"><g id="Atom"><path d="m477.76 128c-16.959-29.439-71.68-31.68-141.119-11.199-16.961-70.401-46.721-116.801-80.641-116.801s-63.68 46.4-80.641 116.801c-69.439-20.481-124.16-18.24-141.119 11.199-16.961 29.439 8.32 78.08 60.799 128-52.479 49.92-77.76 98.559-60.799 128 16.959 29.439 71.68 31.68 141.119 11.199 16.961 70.401 46.721 116.801 80.641 116.801s63.68-46.4 80.641-116.801c69.439 20.48 124.16 18.24 141.119-11.199 16.961-29.441-8.32-78.08-60.799-128 52.478-49.92 77.76-98.561 60.799-128zm-162.561 51.52c-3.52-2.24-7.359-4.48-11.199-6.719-3.84-2.24-7.68-4.48-11.52-6.4 6.719-2.881 13.439-5.76 19.84-8.32 1.28 7.038 2.241 14.079 2.879 21.439zm-59.199-147.52c11.84 0 35.199 32.641 49.92 94.721-16 5.76-32.641 12.799-49.92 21.119-17.279-8.32-33.92-15.359-49.92-21.119 14.721-62.08 38.08-94.721 49.92-94.721zm-56.32 126.08c6.4 2.561 13.121 5.439 19.84 8.32-3.84 1.92-7.68 4.16-11.52 6.4-3.84 2.238-7.68 4.479-11.199 6.719.638-7.359 1.599-14.4 2.879-21.439zm-39.36 111.359c-6.08-4.48-11.52-8.959-16.961-13.439 5.441-4.48 10.881-8.961 16.961-13.439-.32 4.478-.32 8.959-.32 13.439s0 8.959.32 13.439zm-98.24-125.439c6.08-10.24 45.76-14.08 106.881 4.16-2.881 16.959-5.121 34.879-6.721 53.76-15.68 10.561-30.08 21.439-43.201 32.641-46.398-43.84-63.039-80.321-56.959-90.561zm0 224c-6.08-10.24 10.561-46.721 56.959-90.561 13.121 11.199 27.521 22.08 43.201 32.641 1.6 18.879 3.84 36.799 6.721 53.76-61.121 18.24-100.801 14.4-106.881 4.16zm134.721-35.52c3.52 2.238 7.359 4.479 11.199 6.719s7.68 4.48 11.52 6.4c-6.719 2.881-13.439 5.76-19.84 8.32-1.28-7.04-2.241-14.079-2.879-21.439zm59.199 147.52c-11.84 0-35.199-32.641-49.92-94.721 16-5.76 32.641-12.799 49.92-21.119 17.279 8.32 33.92 15.359 49.92 21.119-14.721 62.08-38.08 94.721-49.92 94.721zm56.32-126.08c-6.4-2.561-13.121-5.439-19.84-8.32 3.84-1.92 7.68-4.16 11.52-6.4s7.68-4.48 11.199-6.719c-.638 7.359-1.599 14.398-2.879 21.439zm6.401-61.44c-9.602 6.398-19.84 12.479-30.721 18.879s-21.76 12.16-32 17.279c-10.24-5.119-21.119-10.879-32-17.279s-21.119-12.48-30.721-18.879c-.959-11.521-1.279-23.681-1.279-36.48 0-12.801.32-24.961 1.279-36.48 9.602-6.4 19.84-12.48 30.721-18.879 10.881-6.4 21.76-12.16 32-17.281 10.24 5.121 21.119 10.881 32 17.281 10.881 6.398 21.119 12.479 30.721 18.879.959 11.519 1.279 23.679 1.279 36.48 0 12.799-.32 24.959-1.279 36.48zm131.199-148.48c6.08 10.24-10.561 46.721-56.959 90.561-13.121-11.201-27.521-22.08-43.201-32.641-1.6-18.881-3.84-36.801-6.721-53.76 61.121-18.24 100.801-14.4 106.881-4.16zm-98.24 98.561c6.08 4.479 11.52 8.959 16.961 13.439-5.441 4.48-10.881 8.959-16.961 13.439.32-4.48.32-8.959.32-13.439s0-8.961-.32-13.439zm98.24 125.439c-6.08 10.24-45.76 14.08-106.881-4.16 2.881-16.961 5.121-34.881 6.721-53.76 15.68-10.561 30.08-21.441 43.201-32.641 46.398 43.84 63.039 80.321 56.959 90.561z" fill="#4db5ff"/><circle cx="256" cy="256" fill="#80eaff" r="32"/><g fill="#37f"><path d="m343.039 363.84c-1.92 10.879-4.158 21.439-6.398 31.359-9.92-2.561-20.16-5.76-30.721-9.92 2.24-9.6 4.48-20.16 6.4-31.359 10.879 3.84 21.119 7.359 30.719 9.92z"/><path d="m206.08 126.721c-2.24 9.6-4.48 20.16-6.4 31.359-10.879-3.84-21.119-7.359-30.719-9.92 1.92-10.881 4.158-21.439 6.398-31.359 9.92 2.558 20.161 5.76 30.721 9.92z"/><path d="m343.039 148.16c-9.6 2.561-19.84 6.08-30.719 9.92-1.92-11.199-4.16-21.76-6.4-31.359 10.561-4.16 20.801-7.361 30.721-9.92 2.24 9.92 4.478 20.478 6.398 31.359z"/><path d="m416.961 256c-7.361 7.039-15.361 14.4-24 21.439-7.361-7.039-15.361-14.4-24.32-21.439 8.959-7.039 16.959-14.4 24.32-21.439 8.639 7.039 16.639 14.4 24 21.439z"/><path d="m206.08 385.279c-10.561 4.16-20.801 7.359-30.721 9.92-2.24-9.92-4.479-20.48-6.398-31.359 9.6-2.561 19.84-6.08 30.719-9.92 1.92 11.199 4.16 21.76 6.4 31.359z"/><path d="m143.359 256c-8.959 7.039-16.959 14.4-24.32 21.439-8.639-7.039-16.639-14.4-24-21.439 7.361-7.039 15.361-14.4 24-21.439 7.361 7.039 15.361 14.4 24.32 21.439z"/></g></g></svg>