<?xml version="1.0" encoding="iso-8859-1"?>
<!-- Generator: Adobe Illustrator 19.0.0, SVG Export Plug-In . SVG Version: 6.00 Build 0)  -->
<svg version="1.1" id="Capa_1" xmlns="http://www.w3.org/2000/svg" xmlns:xlink="http://www.w3.org/1999/xlink" x="0px" y="0px"
	 viewBox="0 0 512 512" style="enable-background:new 0 0 512 512;" xml:space="preserve">
<circle style="fill:#0D0A22;" cx="256" cy="256" r="256"/>
<g>
	<path style="fill:#2BBBFA;" d="M161.68,30.949H44.777c-19.759,0-32.747,12.424-32.747,26.551v276.25
		c13.04,40.981,36.133,77.49,66.382,106.632c12.487-4.117,21.713-12.027,21.713-23.719V294.681h55.902
		c77.939,0,138.93-36.143,138.93-131.02v-2.821C294.957,65.963,236.223,30.949,161.68,30.949z M206.851,170.443
		c0,38.4-19.195,56.466-50.824,56.466h-55.902v-119.15h55.902c31.629,0,50.824,18.066,50.824,56.466V170.443z"/>
	<path style="fill:#2BBBFA;" d="M366.7,254.588c0-8.474,9.603-18.077,32.183-18.077c30.501,0,48.003,16.948,63.258,16.948
		c20.323,0,31.619-29.936,31.619-41.232c0-23.719-46.874-40.657-96.005-40.657c-80.185,0-106.162,45.181-106.162,86.967
		c0,94.877,132.138,68.326,132.138,107.301c0,7.899-5.078,18.631-35.004,18.631c-45.181,0-58.169-25.412-76.246-25.412
		c-17.502,0-28.797,24.848-28.797,38.4c0,27.669,48.003,51.952,107.301,51.952c13.437,0,25.715-1.233,36.78-3.594
		c31.284-28.306,55.526-64.251,69.81-104.876C479.59,266.396,366.7,283.689,366.7,254.588z"/>
</g>
<g>
</g>
<g>
</g>
<g>
</g>
<g>
</g>
<g>
</g>
<g>
</g>
<g>
</g>
<g>
</g>
<g>
</g>
<g>
</g>
<g>
</g>
<g>
</g>
<g>
</g>
<g>
</g>
<g>
</g>
</svg>
